inDegrees=no
num_controls=7
num_derivatives=13
num_iterations=95
num_multipliers=7
num_parameters=0
num_slacks=7
num_states=26
objective=0.445903
objective_accelerations=0.056989
objective_balance=0.003428
objective_effort=0.022598
objective_height=0.357351
objective_ligament=0.005537
solver_duration=1287.033116
status=Solve_Succeeded
success=true
DataType=double
version=3
OpenSimVersion=4.5
endheader
time	/jointset/ground_pelvis/pelvis_tilt/value	/jointset/ground_pelvis/pelvis_tx/value	/jointset/ground_pelvis/pelvis_ty/value	/jointset/hip_l/hip_flexion_l/value	/jointset/hip_l/hip_adduction_l/value	/jointset/hip_l/hip_rotation_l/value	/jointset/back/lumbar_extension/value	/jointset/patellofemoral_l/patellar_flexion_l/value	/jointset/knee_l/knee_flexion_l/value	/jointset/knee_l/knee_adduction_l/value	/jointset/knee_l/knee_rotation_l/value	/jointset/ankle_l/ankle_angle_l/value	/jointset/subtalar_l/subtalar_angle_l/value	/jointset/ground_pelvis/pelvis_tilt/speed	/jointset/ground_pelvis/pelvis_tx/speed	/jointset/ground_pelvis/pelvis_ty/speed	/jointset/hip_l/hip_flexion_l/speed	/jointset/hip_l/hip_adduction_l/speed	/jointset/hip_l/hip_rotation_l/speed	/jointset/back/lumbar_extension/speed	/jointset/patellofemoral_l/patellar_flexion_l/speed	/jointset/knee_l/knee_flexion_l/speed	/jointset/knee_l/knee_adduction_l/speed	/jointset/knee_l/knee_rotation_l/speed	/jointset/ankle_l/ankle_angle_l/speed	/jointset/subtalar_l/subtalar_angle_l/speed	/forceset/tau_hip_flexion_l	/forceset/tau_hip_adduction_l	/forceset/tau_hip_rotation_l	/forceset/tau_knee_flexion_l	/forceset/tau_ankle_angle_l	/forceset/tau_subtalar_angle_l	/forceset/tau_lumbar_extension	lambda_cid13_p0	lambda_cid13_p1	lambda_cid13_p2	lambda_cid13_p3	lambda_cid13_p4	lambda_cid13_p5	lambda_cid14_p0	/jointset/ground_pelvis/pelvis_tilt/accel	/jointset/ground_pelvis/pelvis_tx/accel	/jointset/ground_pelvis/pelvis_ty/accel	/jointset/hip_l/hip_flexion_l/accel	/jointset/hip_l/hip_adduction_l/accel	/jointset/hip_l/hip_rotation_l/accel	/jointset/back/lumbar_extension/accel	/jointset/patellofemoral_l/patellar_flexion_l/accel	/jointset/knee_l/knee_flexion_l/accel	/jointset/knee_l/knee_adduction_l/accel	/jointset/knee_l/knee_rotation_l/accel	/jointset/ankle_l/ankle_angle_l/accel	/jointset/subtalar_l/subtalar_angle_l/accel	gamma_cid13_p0	gamma_cid13_p1	gamma_cid13_p2	gamma_cid13_p3	gamma_cid13_p4	gamma_cid13_p5	gamma_cid14_p0
1	-0.5362083968416502	-0.07438034805012249	0.578190103004471	1.809089167346724	-0.4689783093539651	0.01205290123507972	-0.2617918973875915	1.385912606726349	1.385912606725409	-0.08340178596354902	-0.1745281256277544	0.2348124520634715	-0.003380677540338462	-0.01726440569912679	0.01106673113575018	0.002063812965057831	-0.0009559710297503752	-0.002563193501999679	0.003665505050712262	-4.296463977131556e-05	0.003240647972149512	0.003240647972149447	-0.004728550559077971	-9.071962526949006e-05	0.02153830913856297	0.009475839902538205	-0.3267382009507762	0.01879297790711197	7.587789850025504e-05	-0.3055513808553743	0.02797472304569444	0.02915774517479141	0.2802763730625977	-30.7672808454173	-7.908962953649522	1.64789139665424	8.64526088529766	-640.7482198138204	-47.57302313501841	-1.385716858384128	1.501334106756411	0.2174312268294209	1.930425105353534	-6.6754358357627	-0.0607273091096838	-2.320187107510941	-0.01989482398589241	-5.270764774428359	-5.270764774428274	-0.5965940457827822	-0.02788198620700182	-0.7725299393240701	-0.5038515932753957	5.014049357760277e-09	1.931275052723678e-08	-1.544216039758351e-08	2.979943523674911e-09	-1.328221264967773e-09	2.359561947570776e-08	2.855266923153042e-09
1.01	-0.5363068847608841	-0.07425886272738635	0.5783071195356141	1.808747111016163	-0.4690059751473216	0.01197234014359725	-0.261792325825723	1.385681601232712	1.38568160123251	-0.0834761150110185	-0.1745291496269558	0.2349893715475694	-0.003309692859228626	-0.002433174169047085	0.01323234245911438	0.02133599513169059	-0.06744727736720026	-0.002966024385222237	-0.01977428162786025	-4.11678847607789e-05	-0.04944118989155753	-0.04944118989154791	-0.01013700259200543	-0.0001117203206128069	0.01383864343734094	0.004721702587720102	-0.3266672818542607	0.01890803067833234	5.916082562130862e-05	-0.3053796206998835	0.02779084237983435	0.02917291539340578	0.2802242723905807	-30.81418561675304	-7.910869986559659	1.652229011826513	8.59247775683269	-640.6189790555004	-47.57595174729304	-1.390498618741333	1.474017112384318	0.2164282293715547	1.925087723165884	-6.634776771548585	-0.02947068756146195	-2.355363769277568	0.01045019052532113	-5.266807887056843	-5.26680788705544	-0.5129356133020124	0.01115259472810424	-0.7697260464332004	-0.4611085367001364	-3.642077181895933e-09	9.53736453448103e-09	2.669891747813894e-08	3.92621138932319e-09	-1.154370654685168e-08	7.13295995695867e-08	-9.297855146476268e-09
1.02	-0.536257060477567	-0.07411566086256026	0.5786167524785929	1.807740381874465	-0.4690375511914369	0.01165748332107571	-0.2617926896432496	1.384923794441495	1.384923794442031	-0.08360452154507171	-0.1745303112918974	0.2350890861424725	-0.003286232298490032	0.01239803481105553	0.01541003955374773	0.04058709533223197	-0.1338905332571482	-0.003345243653758944	-0.04319364115631925	-3.004051851887807e-05	-0.1021196115438637	-0.1021196115438448	-0.01554404787510508	-0.0001182527789118229	0.00609733129964151	-2.898417170270799e-05	-0.3265963627577446	0.01902308344954363	4.244375273829698e-05	-0.3052078605443935	0.0276069617139712	0.02918808561200659	0.2801721717185663	-30.86731114959849	-7.911590788032688	1.656266694670915	8.565313143966405	-640.5762098644655	-47.55741755434892	-1.405649208566635	1.501329596760993	0.2198483810832452	1.926208712135263	-6.665825746262313	-0.05600498617248133	-2.316101677488205	-0.01802870173962149	-5.270081532148199	-5.2700815321482	-0.5963126958172074	-0.02498833879807836	-0.7808592266195571	-0.5031614821962986	-1.167078673641054e-08	1.226778009990385e-09	6.921184646976276e-08	5.377280187715651e-09	-2.147650579810507e-08	1.173855791100449e-07	-2.088022552058949e-08
1.03	-0.5360589039782756	-0.07395059342389819	0.5791187183108666	1.806069616212663	-0.469072691418756	0.01110866410142592	-0.2617928948142501	1.383639295179045	1.383639295179974	-0.08378694607869117	-0.1745313566341982	0.2351111148077635	-0.003310152470684484	0.02723459269677681	0.01760818732033809	0.05979531605222766	-0.2002383816154507	-0.003666946493069654	-0.06655339375102765	-8.648360655834274e-06	-0.1547724791281729	-0.1547724791281609	-0.02093513308032787	-7.580904836952627e-05	-0.0017048196784868	-0.004742321613853278	-0.3262264434817702	0.01918650862484387	-6.12263546567043e-06	-0.3049094057469814	0.02752517747336901	0.02926879845255544	0.2799143295996083	-30.86766820613405	-7.958513317612943	1.677376022939179	8.461050467184471	-640.2387295932868	-47.60419453205589	-1.431374019589414	1.47501470821891	0.2205102211792117	1.91650914993886	-6.615635702203692	-0.01788478949100749	-2.343410937354739	0.01257497268395349	-5.261718537438179	-5.261718537439201	-0.5096594812555084	0.0211398744784497	-0.7818761487346708	-0.4535226115923498	-1.969309407679105e-08	-7.068861581150608e-09	1.117285698605284e-07	6.833500016034075e-09	-3.14064204980255e-08	1.634244361958764e-07	-3.245677189780969e-08
